<?xml version="1.0" encoding="UTF-8"?><svg xmlns="http://www.w3.org/2000/svg" viewBox="0 0 896 896"><defs><style>.c,.d{stroke-width:0px;}.d{fill:#ff6f61;}</style></defs><g id="a"><rect class="d" width="896" height="896"/></g><g id="b"><path class="c" d="m284.18,435.9c-.38.9-1.86,1.6-4.42,2.11-2.56.51-6.66,1.09-12.29,1.73-1.67.13-4.13.26-7.39.38-3.26.13-6.79.26-10.56.38-3.78.13-7.2.16-10.27.1-3.07-.06-5.18-.22-6.34-.48-1.15,1.28-1.73,2.43-1.73,3.46-.9,1.54-2.02,3.91-3.36,7.1-1.34,3.2-2.82,6.72-4.42,10.56-1.6,3.84-3.07,7.68-4.42,11.52-1.34,3.84-2.47,7.17-3.36,9.98-.9,2.82-1.34,4.74-1.34,5.76-1.15,3.07-1.86,5.7-2.11,7.87-.26,2.17-.7,3.46-1.34,3.84-.13.51-.96.64-2.5.38-1.54-.26-2.82-.96-3.84-2.11-1.54-1.15-2.4-2.21-2.59-3.17-.19-.96.16-2.85,1.06-5.66.38-1.66,1.06-4.13,2.02-7.39s2.05-6.88,3.26-10.85c1.22-3.97,2.5-7.84,3.84-11.62,1.34-3.77,2.65-6.88,3.94-9.31,1.41-2.43,2.3-4.64,2.69-6.62.38-1.98.89-3.81,1.54-5.47-.13-1.41-.13-2.37,0-2.88.13-.51.64-1.28,1.54-2.3.64-.51,1.44-1.44,2.4-2.78.96-1.34,2.08-3.42,3.36-6.24.38-1.28.99-3.04,1.82-5.28.83-2.24,1.63-4.54,2.4-6.91.77-2.37,1.47-4.38,2.11-6.05.64-1.66.96-2.56.96-2.69.25-.51.64-1.5,1.15-2.98.51-1.47.89-2.65,1.15-3.55.51-1.79.93-3.26,1.25-4.42.32-1.15.22-1.73-.29-1.73-1.03.26-3.07.45-6.14.58-1.54.26-2.66.42-3.36.48-.7.07-1.31.16-1.82.29-1.28.13-2.43,0-3.46-.38-1.03-.38-1.54-1.15-1.54-2.3.25-2.05.99-3.74,2.21-5.09,1.21-1.34,2.78-2.08,4.7-2.21.89-.25,1.89-.48,2.98-.67,1.09-.19,2.59-.54,4.51-1.06,2.43-.51,4.32-.93,5.66-1.25,1.34-.32,2.4-.35,3.17-.1.64-.38,1.22-.8,1.73-1.25.51-.45.77-.93.77-1.44,0-.64.29-1.12.86-1.44.58-.32,1.25-.51,2.02-.58.77-.06,1.57.03,2.4.29.83.26,1.44.7,1.82,1.34.25.38.83.71,1.73.96.89.26,2.53.23,4.9-.1,2.37-.32,5.73-.93,10.08-1.82,2.3-.25,5.21-.51,8.74-.77,3.52-.25,6.3-.06,8.35.58,2.18-.38,4.13-.54,5.86-.48,1.73.07,2.91-.16,3.55-.67,2.69.51,4.64.86,5.86,1.06,1.21.19,2.21.61,2.98,1.25.51.51.58,1.22.19,2.11-.51-.26-.45-.22.19.1.64.32,1.09.61,1.34.86.89.38,1.47.86,1.73,1.44.25.58.38,1.12.38,1.63s-.07.96-.19,1.34c-.13,1.15-.77,1.82-1.92,2.02-1.15.19-4.03.23-8.64.1-5.5-.77-10.91-1.06-16.22-.86-5.31.19-11.49.8-18.53,1.82-2.56.13-4.83.48-6.82,1.06-1.99.58-3.1.86-3.36.86-.51,0-1.41.86-2.69,2.59-1.28,1.73-2.5,4.26-3.65,7.58-.51.9-1.41,2.95-2.69,6.14-1.28,3.2-2.66,6.66-4.13,10.37-1.47,3.71-2.75,6.98-3.84,9.79-1.09,2.82-1.76,4.35-2.02,4.61,1.79.51,4.7.77,8.74.77s8.51-.16,13.44-.48c4.93-.32,9.44-.67,13.54-1.06,1.92-.38,3.94-.74,6.05-1.06,2.11-.32,3.49-.35,4.13-.1.64.38,1.21,1.12,1.73,2.21.51,1.09.86,2.21,1.06,3.36.19,1.15.1,2.11-.29,2.88Z"/><path class="c" d="m288.02,489.66c-.51-1.02-1.15-1.82-1.92-2.4s-1.15-1.12-1.15-1.63-.03-1.06-.1-1.63c-.07-.58-.35-1.12-.86-1.63-.64-.77-.58-2.53.19-5.28.77-2.75,2.05-6.14,3.84-10.18,1.79-4.03,3.9-8.29,6.34-12.77,1.02-1.02,2.05-2.37,3.07-4.03,1.02-1.66,1.79-2.75,2.3-3.26,0-.51.19-.99.58-1.44.38-.45.83-.67,1.34-.67v-1.15c0-.64.61-1.73,1.82-3.26,1.21-1.54,2.72-3.23,4.51-5.09,1.79-1.85,3.65-3.65,5.57-5.38s3.52-2.98,4.8-3.74c2.69-1.79,5.47-2.88,8.35-3.26s5.34.26,7.39,1.92c.38.38,1.02,1.03,1.92,1.92.89.9,1.95,1.89,3.17,2.98,1.21,1.09,2.46,2.21,3.74,3.36l7.1,6.34-3.46,9.6c-1.67,5.12-2.08,9.6-1.25,13.44.83,3.84,2.08,7.17,3.74,9.98.64,1.41,1.95,2.75,3.94,4.03,1.98,1.28,3.87,2.05,5.66,2.3,1.02.13,1.98.51,2.88,1.15.89.64,1.34,1.67,1.34,3.07,0,1.28-.26,2.3-.77,3.07-.51.77-1.41,1.28-2.69,1.54-4.22.51-8.16-.51-11.81-3.07-3.65-2.56-7.01-6.78-10.08-12.67-.51-.77-1.19-2.21-2.02-4.32-.83-2.11-1.31-3.49-1.44-4.13-.51.64-1.47,1.82-2.88,3.55-1.41,1.73-2.5,2.98-3.26,3.74-9.09,9.21-16.93,15.39-23.52,18.53-6.59,3.14-12.07,3.3-16.42.48Zm11.04-10.85c2.75-.96,5.73-2.72,8.93-5.28,4.35-3.71,8.74-7.81,13.15-12.29,4.42-4.48,7.97-8.64,10.66-12.48l4.22-6.91c-1.28-2.94-2.66-4.96-4.13-6.05-1.47-1.09-2.72-1.63-3.74-1.63-1.67,0-4.13,1.54-7.39,4.61-3.26,3.07-6.75,7.17-10.46,12.29-3.71,5.12-7.23,10.75-10.56,16.9-1.28,2.56-2.88,6.21-4.8,10.94,0,.9,1.37.86,4.13-.1Z"/><path class="c" d="m362.71,534.78c-3.07.89-6.43,1.06-10.08.48s-6.85-1.7-9.6-3.36c-2.75-1.67-4.32-3.52-4.7-5.57-.13-.77.1-1.6.67-2.5.58-.9,1.28-1.51,2.11-1.82.83-.32,1.57-.1,2.21.67,1.03.64,2.88,1.44,5.57,2.4,2.69.96,5.69,1.12,9.02.48,2.94-.64,5.86-2.37,8.74-5.18,2.88-2.82,5.21-5.44,7.01-7.87,1.02-1.54,2.75-4.29,5.18-8.26,2.43-3.97,4.96-8.35,7.58-13.15,2.62-4.8,4.83-9.25,6.62-13.34.38-1.02.83-2.24,1.34-3.65.51-1.41,1.15-2.56,1.92-3.46.77-1.54,1.44-2.98,2.02-4.32.58-1.34.93-2.27,1.06-2.78.13-.64.7-1.92,1.73-3.84,1.02-1.92,1.98-3.84,2.88-5.76.64-1.92,1.6-4.73,2.88-8.45,1.28-3.71,2.56-6.72,3.84-9.02,1.54-2.94,2.78-5.34,3.74-7.2.96-1.85,2.02-2.98,3.17-3.36,1.15-.89,1.95-1.34,2.4-1.34s1.37.38,2.78,1.15c1.54,1.54,2.5,3.04,2.88,4.51.38,1.47.22,3.26-.48,5.38-.71,2.11-2.02,4.96-3.94,8.54-1.03,3.07-2.15,5.86-3.36,8.35-1.22,2.5-2.15,4.13-2.78,4.9-.64,1.54-1.38,3.23-2.21,5.09-.83,1.86-1.57,3.55-2.21,5.09-2.3,5.12-4.29,9.28-5.95,12.48-1.67,3.2-3.14,6.14-4.42,8.83-1.28,2.69-2.62,5.83-4.03,9.41-2.95,4.73-5.79,9.25-8.54,13.54-2.75,4.29-5.66,8.29-8.74,12-1.28,1.15-2.88,2.5-4.8,4.03-1.92,1.54-3.87,2.94-5.86,4.22-1.99,1.28-3.87,2.17-5.66,2.69Zm25.92-46.08c-1.92-.25-3.81-1.41-5.66-3.46-1.86-2.05-3.3-4.22-4.32-6.53-1.03-2.3-1.41-3.97-1.15-4.99v-2.11c-.77,0-1.44-.96-2.02-2.88s-.99-4.42-1.25-7.49c-.26-3.07-.42-6.34-.48-9.79-.07-3.46.03-6.72.29-9.79.51-2.17.77-4.57.77-7.2s.06-4.7.19-6.24c-.13-2.05.06-3.42.58-4.13.51-.7,1.02-1.25,1.54-1.63,3.58-1.54,5.98-.61,7.2,2.78,1.21,3.39,1.5,9.7.86,18.91-.26,5.12-.26,10.24,0,15.36.26,5.12.99,9.6,2.21,13.44,1.22,3.84,2.91,6.47,5.09,7.87.89.51,1.34,1.22,1.34,2.11s-.26,1.82-.77,2.78c-.51.96-1.19,1.73-2.02,2.3-.83.58-1.63.8-2.4.67Z"/><path class="c" d="m472.72,502.91c-2.3-1.28-3.55-2.69-3.74-4.22-.19-1.54.67-4.22,2.59-8.06,1.92-3.84,4.93-9.79,9.03-17.86,3.07-5.76,5.41-10.27,7.01-13.54,1.6-3.26,2.69-5.6,3.26-7.01.58-1.41.86-2.3.86-2.69-.26-1.15-.13-2.08.38-2.78.51-.7,1.34-1.31,2.5-1.82.64-.64,1.7-1.79,3.17-3.46,1.47-1.66,2.85-3.65,4.13-5.95,1.15-2.69,2.5-5.44,4.03-8.26,1.54-2.81,3.58-6.37,6.14-10.66,2.56-4.29,5.88-9.89,9.98-16.8,2.56-4.48,5.38-9.05,8.45-13.73,3.07-4.67,6.34-9.31,9.79-13.92,1.41-1.79,2.69-3.23,3.84-4.32,1.15-1.09,2.3-1.57,3.46-1.44,1.54,0,3.29.51,5.28,1.54,1.98,1.03,3.81,2.37,5.47,4.03,1.66,1.67,2.88,3.46,3.65,5.38.64,1.03.89,3.2.77,6.53-.13,3.33-.38,7.36-.77,12.1-.38,4.74-.83,9.79-1.35,15.17-.38,5.25-.96,11.46-1.73,18.62-.77,7.17-1.51,14.66-2.21,22.46-.71,7.81-1.25,15.33-1.63,22.56-.38,7.23-.38,13.54,0,18.91.12,1.15.12,2.24,0,3.26-.13,1.02-.19,1.85-.19,2.5-.77.77-2.02,1.12-3.74,1.06-1.73-.07-3.39-.48-4.99-1.25-1.6-.77-2.53-1.73-2.79-2.88-.38-.38-.61-.93-.67-1.63-.07-.7-.03-2.21.1-4.51.13-2.3.26-5.95.38-10.94l.96-31.1-2.5.19c-1.15,0-3.33.13-6.53.38-3.2.26-6.66.61-10.37,1.06-3.71.45-7.14.9-10.27,1.34-3.14.45-5.28.86-6.43,1.25-1.15,0-2.53.77-4.13,2.3-1.6,1.54-3.11,3.52-4.51,5.95-.51,1.79-1.44,3.68-2.78,5.66-1.34,1.99-2.02,3.3-2.02,3.94-.9.64-1.92,1.86-3.07,3.65,0,.77-.61,2.66-1.82,5.66-1.22,3.01-2.72,6.34-4.51,9.98-1.79,3.65-3.59,6.82-5.38,9.5l-4.03,6.14-3.07-2.3Zm39.74-61.82c2.69-.51,4.96-.93,6.82-1.25,1.85-.32,3.55-.48,5.09-.48,5.38-1.28,9.28-2.14,11.71-2.59,2.43-.45,4.13-.67,5.09-.67s1.82.19,2.59.58c.51.64,1.21,1.09,2.11,1.34.13-.25.32-1.73.58-4.42.26-2.69.61-6.02,1.06-9.98.45-3.97.89-8.09,1.34-12.38.45-4.29.8-8.26,1.05-11.9.26-3.65.45-6.43.58-8.35.13-2.43.32-5.63.58-9.6-.77,0-2.4,1.41-4.89,4.22-2.5,2.82-5.28,6.53-8.35,11.14-3.07,4.61-5.95,9.54-8.64,14.78-1.28,2.43-2.5,4.61-3.65,6.53-1.15,1.92-2.05,2.88-2.69,2.88-.26.26-.99,1.38-2.21,3.36-1.22,1.99-2.53,4.22-3.94,6.72-1.41,2.5-2.56,4.74-3.46,6.72-.9,1.99-1.15,3.1-.77,3.36Z"/><path class="c" d="m593.3,494.85c-3.2.26-6.24.07-9.12-.58-2.88-.64-5.31-1.76-7.3-3.36-1.99-1.6-3.36-3.55-4.13-5.86-.9-1.79-1.34-3.04-1.34-3.74s.45-1.31,1.34-1.82c1.02,0,1.95.29,2.78.86.83.58,1.95,1.19,3.36,1.82,1.92,1.67,4.25,2.56,7.01,2.69,2.75.13,5.28-.32,7.58-1.34,2.3-1.02,3.58-2.3,3.84-3.84,0-.51-.19-1.41-.58-2.69-.38-1.28-.83-2.62-1.34-4.03-3.46-4.86-5.98-9.7-7.58-14.5-1.6-4.8-2.4-8.74-2.4-11.81,0-2.3.7-4.77,2.11-7.39,1.41-2.62,3.33-4.83,5.76-6.62,2.3-2.43,4.86-4.61,7.68-6.53,2.81-1.92,5.66-3.58,8.54-4.99,2.88-1.41,5.47-2.43,7.78-3.07,1.41,0,3.26.19,5.57.58,2.3.38,3.9.83,4.8,1.34,1.41.51,2.75,1.89,4.03,4.13,1.28,2.24,1.92,4.45,1.92,6.62,0,.9-.26,2.05-.77,3.46-.51,1.41-1.34,3.07-2.5,4.99-.51,1.41-1.09,2.72-1.73,3.94-.64,1.22-.96,2.08-.96,2.59-.64,1.41-1.51,2.08-2.59,2.02-1.09-.06-2.18-.64-3.26-1.73-1.09-1.09-1.95-2.4-2.59-3.94-.51-1.92-.71-3.49-.58-4.7.13-1.21.64-2.53,1.54-3.94,1.41-1.41,2.11-2.37,2.11-2.88s-.71-.77-2.11-.77c-.9,0-2.53.55-4.9,1.63-2.37,1.09-4.87,2.5-7.49,4.22-2.62,1.73-4.9,3.55-6.82,5.47-2.43,2.3-3.87,3.97-4.32,4.99-.45,1.03-.67,2.62-.67,4.8,0,1.79.41,4.03,1.25,6.72.83,2.69,1.7,4.48,2.59,5.38,1.79,3.46,3.33,6.14,4.61,8.06,3.71,8.19,4.67,14.08,2.88,17.66-1.79,3.59-6.46,5.63-14.02,6.14Z"/><path class="c" d="m707.34,492.35c-2.43.64-4.22.86-5.38.67-1.15-.19-2.69-1.25-4.61-3.17-1.15-1.79-2.18-3.39-3.07-4.8-.9-1.41-1.47-3.9-1.73-7.49-.13-2.43.03-5.09.48-7.97.45-2.88.61-4.96.48-6.24,1.02-4.73,1.44-8.54,1.25-11.42-.19-2.88-.61-4.32-1.25-4.32-1.41-.25-3.94,1.12-7.58,4.13-3.65,3.01-7.81,6.91-12.48,11.71-4.67,4.8-9.31,9.83-13.92,15.07-2.43,3.33-4.16,5.79-5.18,7.39-1.03,1.6-1.79,2.4-2.3,2.4-.9,0-2.11-.32-3.65-.96-1.54-.64-2.88-1.44-4.03-2.4-1.15-.96-1.79-1.82-1.92-2.59,0-.51.32-1.89.96-4.13.64-2.24,1.44-4.83,2.4-7.78.96-2.94,1.82-5.69,2.59-8.26.77-2.56,1.34-4.35,1.73-5.38,1.15-3.33,2.53-7.39,4.13-12.19,1.6-4.8,3.04-9.05,4.32-12.77.51-1.66,1.41-4.06,2.69-7.2,1.28-3.14,2.56-6.3,3.84-9.5,1.28-3.2,2.17-5.57,2.69-7.1.38-1.02,1.09-2.85,2.11-5.47,1.02-2.62,2.14-5.54,3.36-8.74,1.22-3.2,2.37-6.17,3.46-8.93,1.09-2.75,1.82-4.77,2.21-6.05-.13-1.15-.03-2.21.29-3.17.32-.96.67-1.7,1.06-2.21.51,0,1.41-.06,2.69-.19,0-.25.51,0,1.54.77,1.02.77,2.02,1.7,2.98,2.78.96,1.09,1.44,2.02,1.44,2.78.64,1.67.7,3.81.19,6.43-.51,2.62-1.86,6.56-4.03,11.81-1.41,2.05-2.78,5.12-4.13,9.22-1.34,4.1-2.66,7.55-3.94,10.37-.51.9-1.44,2.82-2.78,5.76-1.34,2.95-2.88,6.4-4.61,10.37-1.73,3.97-3.36,7.97-4.9,12-1.54,4.03-2.75,7.65-3.65,10.85-1.28,3.07-1.73,5.12-1.34,6.14.38,1.03,1.92-.13,4.61-3.46,3.58-3.84,7.36-7.74,11.33-11.71,3.97-3.97,7.71-7.33,11.23-10.08,3.52-2.75,6.37-4,8.54-3.74,1.15.26,2.4,1.03,3.74,2.3,1.34,1.28,2.65,2.75,3.94,4.42,1.28,1.67,2.17,3.26,2.69,4.8.51,1.92.86,3.58,1.06,4.99.19,1.41.22,3.49.1,6.24-.13,2.75-.45,7.07-.96,12.96-.77,4.35-1.28,7.46-1.54,9.31-.26,1.86-.16,3.17.29,3.94.45.77,1.18,1.6,2.21,2.5,1.92,1.54,2.91,2.88,2.98,4.03.06,1.15-.8,2.24-2.59,3.26Z"/></g></svg>